<svg xmlns="http://www.w3.org/2000/svg" version="1.1" xmlns:xlink="http://www.w3.org/1999/xlink" xmlns:svgjs="http://svgjs.dev/svgjs" width="1440" height="560" preserveAspectRatio="none" viewBox="0 0 1440 560"><g mask="url(&quot;#SvgjsMask1000&quot;)" fill="none"><rect width="1440" height="560" x="0" y="0" fill="#1e3266"></rect><path d="M1536 560L0 560 L0 280.81Q40.19 249, 72 289.18Q113.27 258.45, 144 299.72Q212.75 248.47, 264 317.22Q311.24 292.46, 336 339.69Q379.26 310.95, 408 354.21Q425.98 300.19, 480 318.17Q531.54 249.71, 600 301.25Q666.42 295.68, 672 362.1Q712.34 282.44, 792 322.77Q832.74 243.51, 912 284.25Q982.38 234.63, 1032 305.01Q1122.08 275.09, 1152 365.16Q1169.08 310.24, 1224 327.31Q1253.73 285.04, 1296 314.77Q1345.07 243.84, 1416 292.91Q1511.16 268.08, 1536 363.24z" fill="#182f5d"></path><path d="M1512 560L0 560 L0 397.29Q78.76 356.05, 120 434.81Q149.55 392.36, 192 421.9Q210.09 367.99, 264 386.07Q293.82 343.89, 336 373.72Q383.82 349.54, 408 397.36Q451.17 368.53, 480 411.71Q498.65 358.36, 552 377Q600.57 305.56, 672 354.13Q735.4 345.53, 744 408.94Q796.44 341.38, 864 393.83Q906.14 315.97, 984 358.11Q1029.53 331.63, 1056 377.16Q1145.81 346.97, 1176 436.78Q1198.24 387.02, 1248 409.27Q1262.26 351.52, 1320 365.78Q1386.7 312.49, 1440 379.19Q1489.59 356.78, 1512 406.37z" fill="#25467d"></path><path d="M1464 560L0 560 L0 461.37Q68.35 409.72, 120 478.06Q175.86 461.92, 192 517.78Q244.75 450.53, 312 503.28Q342.38 413.66, 432 444.05Q502.66 394.71, 552 465.36Q601.83 443.19, 624 493.01Q670.17 467.19, 696 513.36Q712.33 457.69, 768 474.01Q836.65 422.66, 888 491.32Q927.03 410.35, 1008 449.37Q1073.72 395.1, 1128 460.82Q1211.01 423.83, 1248 506.84Q1274.21 461.05, 1320 487.26Q1327.53 422.79, 1392 430.33Q1434.77 401.1, 1464 443.86z" fill="#356cb1"></path><path d="M1536 560L0 560 L0 521.21Q80.71 481.92, 120 562.63Q123.64 494.26, 192 497.9Q243.19 477.09, 264 528.28Q346.48 490.75, 384 573.23Q429.31 498.54, 504 543.85Q526.92 494.77, 576 517.69Q631.83 501.52, 648 557.34Q718.38 507.72, 768 578.1Q805.32 495.42, 888 532.74Q955.5 480.25, 1008 547.75Q1058.88 526.63, 1080 577.51Q1081.98 507.49, 1152 509.47Q1182.25 467.73, 1224 497.98Q1304.8 458.78, 1344 539.57Q1396.53 520.1, 1416 572.63Q1470.78 507.41, 1536 562.19z" fill="white"></path></g><defs><mask id="SvgjsMask1000"><rect width="1440" height="560" fill="#ffffff"></rect></mask></defs></svg>